<mxfile host="app.diagrams.net" modified="2022-04-04T17:58:36.046Z" agent="5.0 (Macintosh; Intel Mac OS X 10_15_7) AppleWebKit/537.36 (KHTML, like Gecko) Chrome/99.0.4844.84 Safari/537.36" etag="CZYjjrqXy_HCMjd6tpH8" version="17.4.0" type="github">
  <diagram id="-L04VFNhgXLhoI5pepk-" name="Page-1">
    <mxGraphModel dx="590" dy="323" grid="1" gridSize="10" guides="1" tooltips="1" connect="1" arrows="1" fold="1" page="1" pageScale="1" pageWidth="827" pageHeight="1169" math="0" shadow="0">
      <root>
        <mxCell id="0" />
        <mxCell id="1" parent="0" />
        <mxCell id="wbIxZ4OF78yz3-e1gYOF-1" value="Book&lt;br&gt;" style="rounded=0;whiteSpace=wrap;html=1;" vertex="1" parent="1">
          <mxGeometry x="160" y="200" width="180" height="40" as="geometry" />
        </mxCell>
        <mxCell id="wbIxZ4OF78yz3-e1gYOF-2" value="title: str&lt;br&gt;year: int&lt;br&gt;autor: Author&lt;br&gt;publisher: Publisher" style="rounded=0;whiteSpace=wrap;html=1;" vertex="1" parent="1">
          <mxGeometry x="160" y="240" width="180" height="70" as="geometry" />
        </mxCell>
        <mxCell id="wbIxZ4OF78yz3-e1gYOF-4" value="quote_from_the_book()" style="rounded=0;whiteSpace=wrap;html=1;" vertex="1" parent="1">
          <mxGeometry x="160" y="310" width="180" height="60" as="geometry" />
        </mxCell>
        <mxCell id="wbIxZ4OF78yz3-e1gYOF-5" value="Author" style="rounded=0;whiteSpace=wrap;html=1;" vertex="1" parent="1">
          <mxGeometry x="390" y="230" width="100" height="20" as="geometry" />
        </mxCell>
        <mxCell id="wbIxZ4OF78yz3-e1gYOF-6" value="name_author: str" style="whiteSpace=wrap;html=1;" vertex="1" parent="1">
          <mxGeometry x="390" y="250" width="100" height="40" as="geometry" />
        </mxCell>
        <mxCell id="wbIxZ4OF78yz3-e1gYOF-9" value="" style="endArrow=classic;html=1;rounded=0;exitX=0.006;exitY=0.118;exitDx=0;exitDy=0;exitPerimeter=0;" edge="1" parent="1" source="wbIxZ4OF78yz3-e1gYOF-6">
          <mxGeometry width="50" height="50" relative="1" as="geometry">
            <mxPoint x="330" y="330" as="sourcePoint" />
            <mxPoint x="280" y="280" as="targetPoint" />
            <Array as="points">
              <mxPoint x="360" y="260" />
              <mxPoint x="280" y="280" />
            </Array>
          </mxGeometry>
        </mxCell>
        <mxCell id="wbIxZ4OF78yz3-e1gYOF-10" value="Publisher" style="rounded=0;whiteSpace=wrap;html=1;" vertex="1" parent="1">
          <mxGeometry x="390" y="310" width="100" height="20" as="geometry" />
        </mxCell>
        <mxCell id="wbIxZ4OF78yz3-e1gYOF-11" value="&lt;font style=&quot;font-size: 11px&quot;&gt;name_publisher: str&lt;/font&gt;" style="whiteSpace=wrap;html=1;" vertex="1" parent="1">
          <mxGeometry x="390" y="330" width="100" height="40" as="geometry" />
        </mxCell>
        <mxCell id="wbIxZ4OF78yz3-e1gYOF-12" value="" style="endArrow=classic;html=1;rounded=0;exitX=0;exitY=0.25;exitDx=0;exitDy=0;" edge="1" parent="1" source="wbIxZ4OF78yz3-e1gYOF-11">
          <mxGeometry width="50" height="50" relative="1" as="geometry">
            <mxPoint x="414" y="270" as="sourcePoint" />
            <mxPoint x="304" y="300" as="targetPoint" />
            <Array as="points">
              <mxPoint x="350" y="320" />
              <mxPoint x="304" y="300" />
            </Array>
          </mxGeometry>
        </mxCell>
      </root>
    </mxGraphModel>
  </diagram>
</mxfile>
